<?xml version="1.0" encoding="iso-8859-1"?>
<!-- Uploaded to: SVG Repo, www.svgrepo.com, Generator: SVG Repo Mixer Tools -->
<svg fill="#000000" version="1.1" id="Layer_1" xmlns="http://www.w3.org/2000/svg" xmlns:xlink="http://www.w3.org/1999/xlink" 
	 viewBox="0 0 512 512" xml:space="preserve">
<g>
	<g>
		<rect x="33.391" width="445.217" height="33.391"/>
	</g>
</g>
<g>
	<g>
		<polygon points="367.304,445.217 367.304,478.609 144.696,478.609 144.696,445.217 111.304,445.217 111.304,512 400.696,512 
			400.696,445.217 		"/>
	</g>
</g>
<g>
	<g>
		<polygon points="300.522,378.435 300.522,445.217 367.304,445.217 367.304,411.826 478.609,411.826 478.609,378.435 		"/>
	</g>
</g>
<g>
	<g>
		<rect y="33.391" width="33.391" height="345.043"/>
	</g>
</g>
<g>
	<g>
		<rect x="478.609" y="33.391" width="33.391" height="345.043"/>
	</g>
</g>
<g>
	<g>
		<polygon points="33.391,378.435 33.391,411.826 144.696,411.826 144.696,445.217 211.478,445.217 211.478,378.435 		"/>
	</g>
</g>
<g>
	<g>
		<path d="M66.783,66.783v278.261h378.435V66.783H66.783z M345.043,244.87h-33.391v33.391h33.391v33.391H166.957v-33.391h33.391
			V244.87h-33.391V133.565h33.391v-33.391h111.304v33.391h33.391V244.87z"/>
	</g>
</g>
</svg>