<?xml version="1.0" encoding="iso-8859-1"?>
<!-- Uploaded to: SVG Repo, www.svgrepo.com, Generator: SVG Repo Mixer Tools -->
<svg fill="#000000" version="1.1" id="Layer_1" xmlns="http://www.w3.org/2000/svg" xmlns:xlink="http://www.w3.org/1999/xlink" 
	 viewBox="0 0 512 512" xml:space="preserve">
<g>
	<g>
		<rect x="66.783" y="33.391" width="33.391" height="33.391"/>
	</g>
</g>
<g>
	<g>
		<rect x="311.652" y="33.391" width="33.391" height="33.391"/>
	</g>
</g>
<g>
	<g>
		<path d="M478.609,233.739v-33.391h-33.391v-33.391h-33.391v-66.783h-33.391v33.391H200.348v33.391h-33.391v33.391h-33.391v33.391
			h-33.391v44.522H66.783v33.391h33.391v66.783h33.391v33.391h33.39v33.391h66.784v33.391h-33.391V512h144.696v-33.391h66.783
			v-33.391h33.391v-33.391h33.391v-33.391H512V233.739H478.609z M345.043,345.043H200.348v-33.391h144.696V345.043z
			 M411.826,278.261H200.348V244.87h211.478V278.261z"/>
	</g>
</g>
<g>
	<g>
		<rect x="100.174" width="211.478" height="33.391"/>
	</g>
</g>
<g>
	<g>
		<rect x="33.391" y="66.783" width="33.391" height="33.391"/>
	</g>
</g>
<g>
	<g>
		<rect x="345.043" y="66.783" width="33.391" height="33.391"/>
	</g>
</g>
<g>
	<g>
		<g>
			<rect y="100.174" width="33.391" height="144.696"/>
			<rect x="33.391" y="244.87" width="33.391" height="33.391"/>
		</g>
	</g>
</g>
</svg>