<?xml version="1.0" encoding="iso-8859-1"?>
<!-- Uploaded to: SVG Repo, www.svgrepo.com, Generator: SVG Repo Mixer Tools -->
<svg fill="#d0d0d0" version="1.1" id="Layer_1" xmlns="http://www.w3.org/2000/svg" xmlns:xlink="http://www.w3.org/1999/xlink" 
	 viewBox="0 0 512 512" xml:space="preserve">
<g>
	<g>
		<rect x="66.783" y="33.391" width="33.391" height="33.391"/>
	</g>
</g>
<g>
	<g>
		<rect x="311.652" y="33.391" width="33.391" height="33.391"/>
	</g>
</g>
<g>
	<g>
		<g>
			<polygon points="378.435,100.174 378.435,133.565 200.348,133.565 200.348,166.957 411.826,166.957 411.826,100.174 			"/>
			<rect x="411.826" y="166.957" width="33.391" height="33.391"/>
		</g>
	</g>
</g>
<g>
	<g>
		<g>
			<rect x="478.609" y="233.739" width="33.391" height="144.696"/>
			<rect x="445.217" y="378.435" width="33.391" height="33.391"/>
		</g>
	</g>
</g>
<g>
	<g>
		<g>
			<polygon points="100.174,278.261 66.783,278.261 66.783,311.652 100.174,311.652 100.174,378.435 133.565,378.435 
				133.565,233.739 100.174,233.739 			"/>
			<rect x="133.565" y="200.348" width="33.391" height="33.391"/>
		</g>
	</g>
</g>
<g>
	<g>
		<rect x="445.217" y="200.348" width="33.391" height="33.391"/>
	</g>
</g>
<g>
	<g>
		<g>
			<rect x="133.565" y="378.435" width="33.39" height="33.391"/>
			<polygon points="233.738,478.609 233.738,445.217 267.129,445.217 267.129,411.826 166.955,411.826 166.955,445.217 
				200.347,445.217 200.347,512 345.043,512 345.043,478.609 			"/>
		</g>
	</g>
</g>
<g>
	<g>
		<rect x="166.957" y="166.957" width="33.391" height="33.391"/>
	</g>
</g>
<g>
	<g>
		<g>
			<rect x="411.826" y="411.826" width="33.391" height="33.391"/>
			<rect x="345.043" y="445.217" width="66.783" height="33.391"/>
		</g>
	</g>
</g>
<g>
	<g>
		<rect x="100.174" width="211.478" height="33.391"/>
	</g>
</g>
<g>
	<g>
		<rect x="33.391" y="66.783" width="33.391" height="33.391"/>
	</g>
</g>
<g>
	<g>
		<rect x="345.043" y="66.783" width="33.391" height="33.391"/>
	</g>
</g>
<g>
	<g>
		<g>
			<rect y="100.174" width="33.391" height="144.696"/>
			<rect x="33.391" y="244.87" width="33.391" height="33.391"/>
		</g>
	</g>
</g>
<g>
	<g>
		<rect x="200.348" y="244.87" width="211.478" height="33.391"/>
	</g>
</g>
<g>
	<g>
		<rect x="200.348" y="311.652" width="144.696" height="33.391"/>
	</g>
</g>
</svg>