<?xml version="1.0" encoding="iso-8859-1"?>
<!-- Uploaded to: SVG Repo, www.svgrepo.com, Generator: SVG Repo Mixer Tools -->
<svg fill="#d0d0d0" version="1.1" id="Layer_1" xmlns="http://www.w3.org/2000/svg" xmlns:xlink="http://www.w3.org/1999/xlink" 
	 viewBox="0 0 512 512" xml:space="preserve">
<g>
	<g>
		<rect x="33.391" y="178.087" width="89.044" height="33.391"/>
	</g>
</g>
<g>
	<g>
		<rect x="33.391" y="300.522" width="89.044" height="33.391"/>
	</g>
</g>
<g>
	<g>
		<rect y="211.478" width="33.391" height="89.043"/>
	</g>
</g>
<g>
	<g>
		<rect x="122.435" y="211.478" width="33.391" height="89.043"/>
	</g>
</g>
<g>
	<g>
		<rect x="400.696" width="77.913" height="33.391"/>
	</g>
</g>
<g>
	<g>
		<rect x="400.696" y="111.304" width="77.913" height="33.391"/>
	</g>
</g>
<g>
	<g>
		<polygon points="367.304,33.391 367.304,77.913 322.783,77.913 322.783,111.304 400.696,111.304 400.696,33.391 		"/>
	</g>
</g>
<g>
	<g>
		<rect x="478.609" y="33.391" width="33.391" height="77.913"/>
	</g>
</g>
<g>
	<g>
		<rect x="400.696" y="367.304" width="77.913" height="33.391"/>
	</g>
</g>
<g>
	<g>
		<rect x="400.696" y="478.609" width="77.913" height="33.391"/>
	</g>
</g>
<g>
	<g>
		<rect x="478.609" y="400.696" width="33.391" height="77.913"/>
	</g>
</g>
<g>
	<g>
		<rect x="155.826" y="178.087" width="55.652" height="33.391"/>
	</g>
</g>
<g>
	<g>
		<rect x="155.826" y="300.522" width="55.652" height="33.391"/>
	</g>
</g>
<g>
	<g>
		<rect x="211.478" y="144.696" width="55.652" height="33.391"/>
	</g>
</g>
<g>
	<g>
		<rect x="211.478" y="333.913" width="55.652" height="33.391"/>
	</g>
</g>
<g>
	<g>
		<rect x="267.13" y="111.304" width="55.652" height="33.391"/>
	</g>
</g>
<g>
	<g>
		<rect x="267.13" y="367.304" width="55.652" height="33.391"/>
	</g>
</g>
<g>
	<g>
		<polygon points="322.783,400.696 322.783,434.087 367.304,434.087 367.304,478.609 400.696,478.609 400.696,400.696 		"/>
	</g>
</g>
</svg>