<?xml version="1.0" encoding="iso-8859-1"?>
<!-- Uploaded to: SVG Repo, www.svgrepo.com, Generator: SVG Repo Mixer Tools -->
<svg fill="#232323" version="1.1" id="Layer_1" xmlns="http://www.w3.org/2000/svg" xmlns:xlink="http://www.w3.org/1999/xlink" 
	 viewBox="0 0 512 512" xml:space="preserve">
<g>
	<g>
		<rect x="11.13" y="166.957" width="111.304" height="345.043"/>
	</g>
</g>
<g>
	<g>
		<polygon points="100.174,33.391 100.174,0 33.391,0 33.391,33.391 0,33.391 0,100.174 33.391,100.174 33.391,133.565 
			100.174,133.565 100.174,100.174 133.565,100.174 133.565,33.391 		"/>
	</g>
</g>
<g>
	<g>
		<polygon points="478.609,233.739 478.609,200.348 445.217,200.348 445.217,166.957 289.391,166.957 289.391,200.348 256,200.348 
			256,166.957 155.826,166.957 155.826,512 267.13,512 267.13,300.522 300.522,300.522 300.522,267.13 367.304,267.13 
			367.304,300.522 400.696,300.522 400.696,512 512,512 512,233.739 		"/>
	</g>
</g>
</svg>