<?xml version="1.0" encoding="iso-8859-1"?>
<!-- Uploaded to: SVG Repo, www.svgrepo.com, Generator: SVG Repo Mixer Tools -->
<svg fill="#000000" version="1.1" id="Layer_1" xmlns="http://www.w3.org/2000/svg" xmlns:xlink="http://www.w3.org/1999/xlink" 
	 viewBox="0 0 512 512" xml:space="preserve">
<g>
	<g>
		<rect x="77.913" y="278.261" width="33.391" height="66.783"/>
	</g>
</g>
<g>
	<g>
		<rect x="367.304" y="278.261" width="33.391" height="66.783"/>
	</g>
</g>
<g>
	<g>
		<rect x="111.304" y="345.043" width="33.391" height="33.391"/>
	</g>
</g>
<g>
	<g>
		<rect x="333.913" y="345.043" width="33.391" height="33.391"/>
	</g>
</g>
<g>
	<g>
		<polygon points="300.522,378.435 300.522,411.826 267.13,411.826 267.13,445.217 333.913,445.217 333.913,378.435 		"/>
	</g>
</g>
<g>
	<g>
		<rect x="111.304" y="445.217" width="33.391" height="33.391"/>
	</g>
</g>
<g>
	<g>
		<rect x="333.913" y="445.217" width="33.391" height="33.391"/>
	</g>
</g>
<g>
	<g>
		<polygon points="178.087,411.826 178.087,378.435 144.696,378.435 144.696,445.217 211.478,445.217 211.478,411.826 		"/>
	</g>
</g>
<g>
	<g>
		<rect x="77.913" y="478.609" width="33.391" height="33.391"/>
	</g>
</g>
<g>
	<g>
		<rect x="367.304" y="478.609" width="33.391" height="33.391"/>
	</g>
</g>
<g>
	<g>
		<polygon points="367.304,66.783 367.304,33.391 333.913,33.391 333.913,0 144.696,0 144.696,33.391 111.304,33.391 
			111.304,66.783 77.913,66.783 77.913,100.174 44.522,100.174 44.522,278.261 77.913,278.261 77.913,200.348 111.304,200.348 
			111.304,166.957 144.696,166.957 144.696,133.565 178.087,133.565 178.087,166.957 244.87,166.957 244.87,200.348 
			400.696,200.348 400.696,278.261 434.087,278.261 434.087,133.565 467.478,133.565 467.478,66.783 		"/>
	</g>
</g>
</svg>