<?xml version="1.0" encoding="iso-8859-1"?>
<!-- Uploaded to: SVG Repo, www.svgrepo.com, Generator: SVG Repo Mixer Tools -->
<svg fill="#d0d0d0" height="800px" width="800px" version="1.1" id="Layer_1" xmlns="http://www.w3.org/2000/svg" xmlns:xlink="http://www.w3.org/1999/xlink" 
	 viewBox="0 0 512 512" xml:space="preserve">
<g>
	<g>
		<path d="M478.609,66.783V33.391h-33.391V0H66.783v33.391H33.391v33.391H0v378.435h33.391v33.391h33.391V512h378.435v-33.391
			h33.391v-33.391H512V66.783H478.609z M389.565,322.783h-33.391v33.391h-33.391v33.391H189.217v-33.391h-33.391v-33.391h-33.391
			V189.217h33.391v-33.391h33.391v-33.391h133.565v33.391h33.391v33.391h33.391V322.783z M422.957,133.565h-44.522V89.044h44.522
			V133.565z"/>
	</g>
</g>
<g>
	<g>
		<polygon points="322.783,189.217 322.783,155.826 189.217,155.826 189.217,189.217 155.826,189.217 155.826,322.783 
			189.217,322.783 189.217,356.174 322.783,356.174 322.783,322.783 356.174,322.783 356.174,189.217 		"/>
	</g>
</g>
</svg>