<?xml version="1.0" encoding="iso-8859-1"?>
<!-- Uploaded to: SVG Repo, www.svgrepo.com, Generator: SVG Repo Mixer Tools -->
<svg fill="#d0d0d0" height="800px" width="800px" version="1.1" id="Layer_1" xmlns="http://www.w3.org/2000/svg" xmlns:xlink="http://www.w3.org/1999/xlink" 
	 viewBox="0 0 512 512" xml:space="preserve">
<g>
	<g>
		<polygon points="311.652,133.565 311.652,66.783 278.261,66.783 278.261,33.391 233.739,33.391 233.739,66.783 200.348,66.783 
			200.348,133.565 166.957,133.565 166.957,278.261 345.043,278.261 345.043,133.565 		"/>
	</g>
</g>
<g>
	<g>
		<polygon points="478.609,166.957 478.609,100.174 445.217,100.174 445.217,66.783 411.826,66.783 411.826,33.391 345.043,33.391 
			345.043,0 278.261,0 278.261,33.391 311.652,33.391 311.652,66.783 345.043,66.783 345.043,133.565 378.435,133.565 
			378.435,244.87 445.217,244.87 445.217,211.478 512,211.478 512,166.957 		"/>
	</g>
</g>
<g>
	<g>
		<polygon points="166.957,0 166.957,33.391 100.174,33.391 100.174,66.783 66.783,66.783 66.783,100.174 33.391,100.174 
			33.391,166.957 0,166.957 0,211.478 66.783,211.478 66.783,244.87 133.565,244.87 133.565,133.565 166.957,133.565 
			166.957,66.783 200.348,66.783 200.348,33.391 233.739,33.391 233.739,0 		"/>
	</g>
</g>
<g>
	<g>
		<polygon points="445.217,244.87 445.217,278.261 378.435,278.261 378.435,378.435 345.043,378.435 345.043,445.217 
			311.652,445.217 311.652,478.609 278.261,478.609 278.261,512 345.043,512 345.043,478.609 411.826,478.609 411.826,445.217 
			445.217,445.217 445.217,411.826 478.609,411.826 478.609,345.043 512,345.043 512,244.87 		"/>
	</g>
</g>
<g>
	<g>
		<polygon points="166.957,311.652 166.957,378.435 200.348,378.435 200.348,445.217 233.739,445.217 233.739,478.609 
			278.261,478.609 278.261,445.217 311.652,445.217 311.652,378.435 345.043,378.435 345.043,311.652 		"/>
	</g>
</g>
<g>
	<g>
		<polygon points="200.348,478.609 200.348,445.217 166.957,445.217 166.957,378.435 133.565,378.435 133.565,278.261 
			66.783,278.261 66.783,244.87 0,244.87 0,345.043 33.391,345.043 33.391,411.826 66.783,411.826 66.783,445.217 100.174,445.217 
			100.174,478.609 166.957,478.609 166.957,512 233.739,512 233.739,478.609 		"/>
	</g>
</g>
</svg>